# xmcd
#
# Track frame offsets:
#	150
#	19514
#	45792
#	62476
#	82185
#	101087
#	120590
#
# Disc length: 1765 seconds
#
# Revision: 1
# Processed by: cddbd v1.5PL3 Copyright (c) Steve Scherf et al.
# Submitted via: CDex 1.50Beta5
#
DISCID=4b06e307
DTITLE=岡北有由 - Panda
DYEAR=1900
DGENRE=JPop
TTITLE0=わたし
TTITLE1=灰色ラブソング
TTITLE2=a strange guy w/honest eyes
TTITLE3=咲イテ
TTITLE4=まつ毛がゆれる
TTITLE5=いつの日にか
TTITLE6=a little crime
EXTD=
EXTT0=
EXTT1=
EXTT2=
EXTT3=
EXTT4=
EXTT5=
EXTT6=
PLAYORDER=
